<svg width="128" height="78" viewBox="0 0 128 78" fill="none" xmlns="http://www.w3.org/2000/svg">
<path fill-rule="evenodd" clip-rule="evenodd" d="M9.59604 39.817V43.0786H4.12479C3.99063 43.0786 3.90119 43.1916 3.90119 43.3262V45.5526C3.90119 45.6431 3.99063 45.7553 4.12479 45.7553H8.02598C9.07934 45.7553 9.79729 46.4748 9.79729 47.5323V53.2222C9.79729 54.2797 9.07934 55 8.02598 55H0V51.7152H5.67249C5.82902 51.7152 5.91846 51.6263 5.91846 51.5133V49.3093C5.91846 49.1963 5.82902 49.1066 5.67249 49.1066H1.77131C0.717946 49.1066 0 48.3871 0 47.3296V41.594C0 40.5373 0.717946 39.817 1.77131 39.817H9.59604ZM23.0485 39.8174V43.1014H19.6177V54.9996H15.7165V43.1014H12.2865V39.8174H23.0485ZM35.3572 39.817C36.4106 39.817 37.1285 40.5373 37.1285 41.594V53.2222C37.1285 54.2797 36.4106 55 35.3572 55H27.5772C26.523 55 25.8059 54.2797 25.8059 53.2222V41.594C25.8059 40.5373 26.523 39.817 27.5772 39.817H35.3572ZM50.4909 39.8174C51.4556 39.8174 52.263 40.6049 52.263 41.5271V45.4408H48.3618V43.3257C48.3618 43.1911 48.2492 43.0789 48.1598 43.0789H45.3128C45.1778 43.0789 45.066 43.1911 45.066 43.3257V51.4912C45.066 51.6258 45.1778 51.7155 45.3128 51.7155H48.1598C48.2492 51.7155 48.3618 51.6258 48.3618 51.4912V49.3312H52.263V53.2674C52.263 54.2576 51.4556 54.9995 50.4909 54.9995H42.8906C41.9267 54.9995 41.164 54.2576 41.164 53.2674V41.5271C41.164 40.6049 41.9267 39.8174 42.8906 39.8174H50.4909ZM55.1186 23C55.4053 23 55.6864 23.0288 55.9627 23.0785V23.0745L56.0226 23.0881C56.053 23.0937 56.0825 23.1017 56.1129 23.1082C56.2175 23.1306 56.3213 23.1562 56.4235 23.1859C56.4706 23.1995 56.5169 23.2131 56.5641 23.2283C56.6527 23.2572 56.7398 23.2892 56.8276 23.3229C56.8731 23.3405 56.9187 23.3565 56.9642 23.3757C57.0832 23.427 57.2006 23.4815 57.3148 23.5424C57.3643 23.5688 57.4114 23.5985 57.4609 23.6265C57.5312 23.6666 57.6015 23.7082 57.6693 23.7523C57.7244 23.7875 57.7771 23.8252 57.8315 23.8621C57.8922 23.9053 57.9512 23.9502 58.0103 23.9967C58.063 24.0367 58.115 24.0776 58.1653 24.12C58.23 24.1753 58.2915 24.233 58.3537 24.2923C58.3897 24.3259 58.428 24.3564 58.4632 24.3924C59.3863 25.317 59.8479 26.5324 59.8479 27.7485H59.8519L59.8639 46.1378L63.7875 39.8174H68.1367L63.7643 46.4078L68.3163 54.9995H64.0566L61.097 49.1966L59.8639 51.1988V54.9995H55.9627V27.7485C55.9619 27.5322 55.8789 27.3143 55.7144 27.1493C55.4995 26.9329 55.248 26.9017 55.1186 26.9017C54.986 26.9017 54.7377 26.9329 54.522 27.1493L53.8121 27.8647L51.0609 30.6215L48.3121 27.8647L47.5989 27.1493C47.3841 26.9329 47.1325 26.9017 47.0024 26.9017C46.873 26.9017 46.6222 26.9329 46.4066 27.1493C46.0776 27.4793 46.0776 28.0177 46.4066 28.3454L47.1198 29.0608L49.8678 31.8185L51.0609 33.0146L52.2532 31.8185L54.6666 29.3997V34.9158L51.0609 38.5339L43.6554 31.1054C41.8122 29.2531 41.8122 26.2415 43.6554 24.3924C44.5499 23.4943 45.7374 23 47.0024 23C48.2658 23 49.4557 23.4943 50.3509 24.3924L51.0609 25.1047L51.7708 24.3924C52.6653 23.4943 53.8528 23 55.1186 23ZM74.7952 39.8174V45.6203H78.4951V39.8174H82.3963V54.9996H78.4951V48.9716H74.7952V54.9996H70.894V39.8174H74.7952ZM96.1175 39.817C97.1708 39.817 97.8888 40.5373 97.8888 41.594V53.2222C97.8888 54.2797 97.1708 55 96.1175 55H88.3382C87.2841 55 86.5669 54.2797 86.5669 53.2222V41.594C86.5669 40.5373 87.2841 39.817 88.3382 39.817H96.1175ZM105.939 39.8174V51.7155H110.759V54.9995H102.06V39.8174H105.939ZM118.023 39.8174L121.072 46.9021L123.875 39.8174H128V54.9995H124.323V46.2499L121.767 52.2779H120.242L117.665 46.4078V54.9995H114.077V39.8174H118.023ZM32.9805 43.101H29.9091C29.8189 43.101 29.7071 43.214 29.7071 43.3486V51.5133C29.7071 51.6263 29.8189 51.7152 29.9091 51.7152H32.9805C33.1147 51.7152 33.2273 51.6263 33.2273 51.5133V43.3486C33.2273 43.214 33.1147 43.101 32.9805 43.101ZM93.7408 43.101H90.6694C90.5799 43.101 90.4681 43.214 90.4681 43.3486V51.5133C90.4681 51.6263 90.5799 51.7152 90.6694 51.7152H93.7408C93.875 51.7152 93.9876 51.6263 93.9876 51.5133V43.3486C93.9876 43.214 93.875 43.101 93.7408 43.101Z" fill="white"/>
</svg>
