<svg width="128" height="78" viewBox="0 0 128 78" fill="none" xmlns="http://www.w3.org/2000/svg">
<path fill-rule="evenodd" clip-rule="evenodd" d="M52.9924 21.0216C53.051 21.0809 53.0655 21.1682 53.0357 21.2861C53.0068 21.5497 52.9482 21.9607 52.8597 22.5176C56.5673 22.4591 59.4358 22.5913 61.466 22.9134C61.6717 22.9431 61.7151 23.0609 61.5986 23.266C61.2747 23.8237 60.6855 24.0873 59.8328 24.0576C57.6853 23.9695 55.3014 24.0135 52.6829 24.1898C52.2417 29.177 52.0215 34.8235 52.0215 41.1294C52.0215 46.4691 52.2119 50.7078 52.5945 53.8455C55.8608 53.7574 56.2238 53.8422 58.1656 54.1651C58.4011 54.1939 58.4598 54.3117 58.3425 54.5168C58.0185 55.0737 57.4447 55.3525 56.6209 55.3525C53.9726 55.3237 53.3877 55.472 50.3883 55.7814C48.2782 56.0001 46.2914 56.2806 44.2034 56.9561C44.0265 57.0146 43.9092 57.0146 43.8497 56.9561C43.8208 56.8977 43.8208 56.7798 43.8497 56.6044C44.1439 55.4305 44.7033 54.7262 45.5271 54.4922C47.3507 53.9642 48.6489 53.9608 50.9613 53.8896C50.6969 53.5667 50.5354 53.1861 50.4767 52.7454C50.2404 50.6629 50.1239 47.7735 50.1239 44.0781C50.1239 35.9821 50.4912 29.3965 51.2266 24.3221C48.2842 24.5568 45.607 24.9967 43.1942 25.6417C42.9885 25.7011 42.8559 25.7011 42.7972 25.6417C42.7088 25.5832 42.6943 25.4663 42.753 25.29C43.0463 24.1754 43.5913 23.5152 44.3862 23.3101C45.8569 22.9287 48.2399 22.6651 51.536 22.5176C51.7707 21.7556 52.183 21.2572 52.7713 21.0216C52.8886 20.9928 52.9626 20.9928 52.9924 21.0216ZM11.4752 21.8144C13.9755 21.7848 15.8297 22.9731 17.0361 25.3785C17.9483 27.1669 18.3454 29.118 18.228 31.2301C18.0801 33.7533 17.2861 35.2196 15.845 35.6299C15.6682 35.6892 15.55 35.7028 15.4922 35.6739C15.4327 35.6155 15.4327 35.4841 15.4922 35.279C15.7855 34.1102 15.9334 32.838 15.9334 31.464C15.9334 29.1849 15.55 27.2406 14.7857 25.6327C13.9619 23.8791 12.8882 23.0315 11.5636 23.0892C9.68048 23.1494 7.73871 24.7886 5.73742 28.0102C3.53125 31.6429 2.38352 35.7875 2.29596 40.4441C2.23645 44.2225 2.91318 47.2772 4.3253 49.6055C5.73742 51.9338 7.65029 53.0687 10.0631 53.0093C12.0048 52.9797 13.7043 52.1372 15.1606 50.4802C16.6126 48.8281 18.3858 46.2509 18.4241 42.8831C18.5351 37.1551 18.9822 32.5815 19.7634 29.1614C19.9692 28.2528 20.3662 27.6951 20.9554 27.49C21.1322 27.4307 21.2351 27.4307 21.2648 27.49C21.2648 27.5197 21.2495 27.607 21.2206 27.7536C20.4844 31.861 20.1171 37.5219 20.1171 44.7373V48.3895C20.7394 45.3687 21.6151 42.8455 22.7433 40.8215C23.0102 40.3231 23.3214 40.0739 23.6776 40.0739C23.9148 40.0739 24.1826 40.1917 24.4784 40.4257C25.0719 40.8952 25.3694 41.7174 25.3694 42.8904C25.3099 48.0818 25.7069 50.8093 26.5605 51.0737C26.9142 51.1915 27.2959 50.8754 27.7082 50.1278C27.9191 49.7439 28.0899 49.315 28.2243 48.8421C28.1843 48.4666 28.158 48.0682 28.1495 47.6419C28.1197 45.5594 28.3543 43.7405 28.8551 42.1861C29.0608 41.5411 29.4434 41.1597 30.0028 41.0419C30.1201 41.0419 30.2239 41.1003 30.3123 41.2182C29.9289 43.0362 29.7384 44.8695 29.7384 46.7172C29.7384 49.8854 30.0912 51.5874 30.7969 51.8221C31.2092 51.9688 31.7023 51.6018 32.2762 50.722C32.85 49.8422 33.2538 48.7268 33.4893 47.3775C33.497 47.3402 33.5055 47.3071 33.514 47.2775C33.293 45.9112 33.1799 44.305 33.1799 42.4497C33.1799 39.8392 33.4298 36.9354 33.9306 33.7383C34.666 29.3089 35.6369 27.0942 36.8432 27.0942C37.225 27.0942 37.5939 27.329 37.9468 27.7977C38.7417 28.7953 39.1378 30.4531 39.1378 32.7696C39.1378 35.0572 38.7706 37.3897 38.0352 39.7654C37.2411 42.2293 36.2541 43.9897 35.0783 45.0466C35.3129 49.5049 36.0636 51.734 37.3295 51.734C37.8872 51.734 38.4764 51.3153 39.0945 50.4804C39.6335 49.7507 40.0654 48.8505 40.4029 47.7979C40.1206 46.3239 39.9761 44.5474 39.9761 42.4497C39.9761 39.8392 40.226 36.9354 40.7268 33.7383C41.4622 29.3089 42.4322 27.0942 43.6395 27.0942C44.022 27.0942 44.3902 27.329 44.743 27.7977C45.537 28.7953 45.9349 30.4531 45.9349 32.7696C45.9349 35.0572 45.5668 37.3897 44.8314 39.7654C44.0365 42.2293 43.0511 43.9897 41.8745 45.0466C42.11 49.5049 42.8599 51.734 44.1249 51.734C44.6835 51.734 45.2726 51.3153 45.8907 50.4804C46.5088 49.643 46.9942 48.5954 47.347 47.3342C47.4354 47.0698 47.5239 47.041 47.6114 47.2452C47.7585 47.5097 47.7883 48.0377 47.6998 48.8294C47.6114 49.827 47.3173 50.722 46.8174 51.5136C46.2282 52.5104 45.4631 53.0096 44.5228 53.0096C44.2575 53.0096 43.9923 52.9655 43.7279 52.8782C42.4076 52.5061 41.4401 51.3543 40.8169 49.4379C40.6783 50.1931 40.4165 50.8864 40.0212 51.5136C39.432 52.5104 38.6677 53.0096 37.7257 53.0096C37.4613 53.0096 37.1969 52.9655 36.9317 52.8782C35.5603 52.4917 34.5673 51.2661 33.9484 49.2142C33.8702 50.1651 33.6296 50.983 33.2249 51.6679C32.6953 52.5629 32.033 53.0096 31.239 53.0096C31.0324 53.0096 30.8122 52.9655 30.5767 52.8782C29.7325 52.5765 29.1101 51.9238 28.7055 50.9254C28.3799 51.7857 27.8128 52.2171 27.0017 52.2171C26.796 52.2171 26.5894 52.1739 26.3845 52.0857C24.9129 51.5874 24.0449 50.4575 23.7805 48.698C23.6036 47.4953 23.5152 45.3535 23.5152 42.2734C23.4557 41.864 23.3503 41.8191 23.2015 42.142C21.6789 45.3984 20.7836 48.9624 20.5141 52.8333C20.4852 53.1562 20.3415 53.274 20.0822 53.1859C19.1615 52.8621 18.6582 52.1154 18.5724 50.9424C18.5087 50.1678 18.4623 49.3165 18.433 48.3886C17.8905 49.7877 17.109 51.0129 16.2421 51.9092C14.8299 53.3763 13.0488 54.168 10.9022 54.2858C8.07708 54.4324 5.6201 53.4204 3.53125 51.2498C1.2069 48.8155 0.0294185 45.4566 0.000512861 41.173C-0.0292429 35.9231 1.2358 31.3327 3.7965 27.4016C6.14975 23.735 8.7096 21.8729 11.4752 21.8144ZM96.0933 30.8334C96.2098 30.8045 96.2838 30.8045 96.3135 30.8334C96.3424 30.863 96.3424 30.9512 96.3135 31.0978C96.1069 32.1539 95.8867 33.6498 95.6512 35.5857C98.3284 35.5272 100.697 35.6645 102.758 35.9959C102.904 36.0264 102.934 36.118 102.845 36.2688C102.551 36.6935 102.124 36.8918 101.566 36.8621C99.5356 36.774 97.5191 36.774 95.5186 36.8621C95.2542 39.3913 95.0918 41.8052 95.034 44.1013C94.915 49.1019 95.4013 51.6014 96.4904 51.6014C96.9316 51.6014 97.4017 51.2497 97.9025 50.5454C98.3233 49.9529 98.6489 49.1706 98.8827 48.2027C98.9201 47.9238 98.9592 47.6373 99.0051 47.3339C99.3282 45.2218 99.5195 43.7699 99.579 42.9774C98.6668 42.5087 98.24 41.673 98.2987 40.4694C98.3284 39.649 98.5052 38.9887 98.8283 38.4903C99.0936 38.0793 99.3869 37.8733 99.7116 37.8733C100.417 37.8733 100.77 39.237 100.77 41.9654C102.211 42.0544 103.507 41.3204 104.654 39.7651C104.831 39.5015 105.052 39.5015 105.316 39.7651C105.757 40.2355 105.978 40.6898 105.978 41.1297C105.978 41.3356 105.934 41.5552 105.846 41.7899C104.786 44.1072 104.257 46.5567 104.257 49.1375C104.257 51.0734 104.654 52.0422 105.449 52.0422C106.462 52.0422 107.343 50.8318 108.09 48.4205C108.072 48.1696 108.058 47.9128 108.053 47.6416C108.023 45.5591 108.258 43.741 108.759 42.1857C108.964 41.5407 109.347 41.1593 109.906 41.0415C110.023 41.0415 110.127 41.1009 110.215 41.2178C109.832 43.0367 109.642 44.87 109.642 46.7177C109.642 49.8859 109.994 51.5879 110.701 51.8218C111.112 51.9693 111.605 51.6014 112.179 50.7217C112.527 50.1885 112.804 49.5579 113.028 48.8528C112.891 48.2967 112.819 47.7034 112.819 47.0703C112.819 46.5126 112.877 45.9413 112.995 45.3531C113.319 43.5351 113.863 42.0976 114.628 41.0415C115.334 40.1033 116.099 39.6337 116.923 39.6337C117.305 39.6337 117.673 39.7515 118.027 39.9855C119.027 40.6898 119.527 41.7018 119.527 43.0215C119.527 43.4919 119.468 43.975 119.35 44.4733C119.055 45.7057 118.46 46.6881 117.563 47.4221C116.666 48.1552 115.716 48.5519 114.716 48.6095C114.893 50.2818 115.349 51.2497 116.084 51.5141C116.29 51.6014 116.526 51.6455 116.791 51.6455C117.644 51.6455 118.505 51.2573 119.373 50.4801C119.997 49.9207 120.502 49.2265 120.89 48.401C120.856 48.2662 120.814 48.1018 120.763 47.906C120.527 46.9669 120.601 46.2931 120.984 45.8812C121.16 45.7057 121.307 46.0134 121.425 46.8059C122.189 42.8452 123.248 40.2355 124.602 38.9743C124.866 38.7099 125.146 38.5776 125.44 38.5776C125.794 38.5776 126.131 38.7539 126.456 39.1057C126.632 39.3108 126.602 39.5015 126.368 39.6778C125.955 40.0295 125.75 40.6016 125.75 41.3933C125.75 42.6256 126.205 44.2691 127.118 46.3219C127.706 47.7009 128 48.8595 128 49.7969C128 50.7657 127.691 51.5353 127.074 52.1074C126.456 52.6795 125.764 52.966 124.999 52.966C123.499 52.966 122.292 51.9532 121.381 49.93C121.321 50.0766 121.204 50.2377 121.027 50.414C121.004 50.4318 120.984 50.4411 120.964 50.453C120.723 50.8937 120.43 51.2861 120.079 51.6243C119.299 52.371 118.38 52.7457 117.32 52.7457C116.791 52.7457 116.261 52.6431 115.731 52.438C114.996 52.1447 114.363 51.5726 113.834 50.7217C113.767 50.6208 113.706 50.5157 113.646 50.4114C113.523 50.87 113.352 51.2904 113.128 51.6675C112.598 52.5626 111.936 53.0092 111.142 53.0092C110.936 53.0092 110.714 52.966 110.48 52.8779C109.505 52.5295 108.823 51.7167 108.434 50.4386C107.944 52.3871 107.066 53.361 105.802 53.361C104.654 53.361 103.786 52.7304 103.197 51.4701C102.726 50.5013 102.492 49.402 102.492 48.1696C102.492 46.527 102.83 44.7234 103.507 42.7579C102.8 43.0816 101.991 43.2418 101.079 43.2418H100.726C100.696 43.8012 100.594 45.1421 100.417 47.2627C100.269 49.0307 100.196 50.4157 100.196 51.4158C100.196 52.182 100.24 52.8592 100.329 53.4483C100.358 53.5958 100.329 53.6839 100.24 53.7136C100.181 53.7721 100.079 53.7721 99.9318 53.7136C99.182 53.4737 98.7654 52.8168 98.6736 51.7523C98.1932 52.4414 97.5845 52.7897 96.8432 52.7897C96.6366 52.7897 96.4164 52.7601 96.1809 52.7016C94.9745 52.4075 94.1507 51.5574 93.7095 50.1495C93.3566 48.9468 93.224 47.011 93.3124 44.342C93.3711 41.9077 93.621 39.4133 94.0623 36.8621C92.9741 36.9494 91.885 37.0969 90.7968 37.302C90.6497 37.3309 90.5613 37.302 90.5324 37.2139C90.4737 37.1554 90.4737 37.0817 90.5324 36.9935C90.6497 36.3189 91.091 35.9383 91.8561 35.8493C92.3858 35.7917 93.1798 35.7332 94.2391 35.6739C94.5919 33.9431 94.8861 32.6819 95.1216 31.8894C95.2687 31.3614 95.5917 31.0097 96.0933 30.8334ZM74.0586 27.0057C74.1759 26.9769 74.2499 26.9769 74.2788 27.0057C74.3383 27.0354 74.3519 27.1091 74.323 27.2252C73.2934 32.5353 72.8072 38.2411 72.8667 44.342C72.8956 46.1015 72.9551 47.4653 73.0435 48.4341C73.2203 50.4877 73.5578 51.6167 74.0586 51.8218C74.4114 51.9693 74.8229 51.6167 75.2939 50.7657C75.5336 50.3326 75.7385 49.8266 75.9094 49.2503C75.8261 48.5993 75.7793 47.878 75.7793 47.0703C75.7793 45.0166 76.0446 43.0079 76.5734 41.0415C76.8089 40.1617 77.2204 39.6778 77.8095 39.5896C77.9566 39.5608 78.0595 39.5608 78.1181 39.5896C78.1479 39.6193 78.1479 39.7074 78.1181 39.8541C77.7364 41.8188 77.5451 43.975 77.5451 46.3219C77.5451 48.2289 77.7058 49.6215 78.0306 50.5013C78.295 51.2353 78.6928 51.6014 79.2216 51.6014C80.0454 51.6014 80.6193 50.1207 80.9432 47.1576L81.5613 41.6577C81.7084 40.8076 82.1641 40.2931 82.9292 40.1177C83.0763 40.0889 83.1792 40.1033 83.2378 40.1617C83.2676 40.1914 83.2676 40.2796 83.2378 40.4262C82.9139 42.8011 82.7532 44.9573 82.7532 46.894C82.7532 49.9156 83.1639 51.4251 83.9885 51.4251C84.3124 51.4251 84.6576 51.0369 85.0257 50.2597C85.2774 49.7274 85.4729 49.1113 85.6217 48.4205C85.5877 48.2832 85.5435 48.112 85.4891 47.906C85.2536 46.9669 85.3275 46.2931 85.7093 45.8812C85.8861 45.7057 86.0332 46.0134 86.1513 46.8059C86.9165 42.8452 87.9749 40.2355 89.3284 38.9743C89.5937 38.7099 89.8734 38.5776 90.1675 38.5776C90.5203 38.5776 90.8578 38.7539 91.1826 39.1057C91.3586 39.3108 91.3288 39.5015 91.0942 39.6778C90.6819 40.0295 90.4761 40.6016 90.4761 41.3933C90.4761 42.6256 90.9318 44.2691 91.844 46.3219C92.4323 47.7009 92.7265 48.8595 92.7265 49.7969C92.7265 50.7657 92.4179 51.5353 91.8007 52.1074C91.1826 52.6795 90.4906 52.966 89.7263 52.966C88.3014 52.966 87.1418 52.0515 86.2483 50.2275C85.9796 51.8447 85.2723 52.6575 84.1211 52.6575C82.9139 52.6575 82.0467 51.8218 81.5171 50.1495C81.1345 51.4116 80.5309 52.2769 79.7071 52.7457C79.3543 52.9508 78.9717 53.0533 78.5602 53.0533C77.9124 53.0533 77.3827 52.8041 76.9713 52.3058C76.774 52.0583 76.6023 51.7659 76.4544 51.4268C76.0497 52.5109 75.4274 53.0533 74.5882 53.0533C74.3817 53.0533 74.1759 53.0245 73.9702 52.966C72.5581 52.4965 71.6603 51.1768 71.2777 49.0062C70.8654 51.6167 69.8214 52.9219 68.144 52.9219C66.9376 52.9219 66.0109 52.3914 65.364 51.3328C65.3062 51.2395 65.2534 51.1412 65.2016 51.0429C65.1633 51.1302 65.1225 51.2141 65.0775 51.2938C64.6804 51.9981 64.1431 52.3498 63.4664 52.3498C61.7304 52.3498 60.6864 51.1912 60.3327 48.8731C60.1567 47.6721 60.0683 45.5294 60.0683 42.4493C60.0088 42.0391 59.9059 41.995 59.7597 42.3171C58.288 45.5447 57.3758 49.0062 57.023 52.7016C56.9932 53.0245 56.8606 53.1559 56.626 53.0974C55.7137 52.9219 55.2283 52.4524 55.1696 51.6896C55.0217 50.1936 54.9928 48.3018 55.0812 46.0134C55.1696 43.5495 55.3456 41.6289 55.6109 40.2499C55.758 39.5167 56.1405 39.0616 56.7577 38.8853C56.9048 38.8565 57.0077 38.8565 57.0672 38.8853C57.1259 38.915 57.1403 39.0031 57.1114 39.1497C56.6991 41.9374 56.5665 45.1048 56.7144 48.6536C57.3903 45.4269 58.2583 42.8748 59.3184 40.9975C59.6118 40.4694 59.9212 40.2058 60.2451 40.2058C60.745 40.2058 61.1718 40.4999 61.5246 41.0856C61.7899 41.5263 61.9225 42.1857 61.9225 43.0655C61.863 48.2578 62.26 50.9717 63.1136 51.2056C63.5251 51.3234 63.9374 50.9793 64.3497 50.1716C64.4687 49.9376 64.5674 49.6893 64.6549 49.435C64.5691 48.9799 64.5257 48.4951 64.5257 47.9781C64.5257 47.183 64.6141 46.3304 64.7901 45.4175C65.1718 43.4749 65.7754 41.9603 66.6001 40.8712C67.4231 39.782 68.2622 39.237 69.1157 39.237C69.9098 39.237 70.601 39.7363 71.1893 40.7339C71.543 35.4535 72.1755 31.1571 73.0877 27.8414C73.205 27.4312 73.5289 27.1532 74.0586 27.0057ZM69.6326 40.5135C69.1276 40.3974 68.5402 40.9542 67.8719 42.1857C67.2029 43.4181 66.7497 44.87 66.5125 46.5423C66.4233 47.1873 66.3791 47.789 66.3791 48.3451C66.3791 49.4613 66.5346 50.3335 66.8466 50.9632C67.1587 51.5947 67.5081 51.9252 67.8941 51.9532C68.5478 52.0133 69.2161 51.2785 69.9004 49.7537C70.6418 48.0526 70.9836 46.1176 70.9249 43.9453C70.8943 42.9486 70.731 42.1129 70.4343 41.4373C70.1963 40.8813 69.9293 40.5728 69.6326 40.5135ZM124.293 41.6136C123.645 42.6409 122.896 44.9285 122.042 48.4781C122.512 49.4749 123.116 50.2674 123.852 50.853C124.499 51.3811 125.102 51.6455 125.661 51.6455C126.279 51.6455 126.588 51.309 126.588 50.6343C126.588 50.047 126.191 48.8299 125.396 46.9813C124.602 45.1336 124.205 43.6673 124.205 42.5816C124.205 42.2298 124.234 41.9077 124.293 41.6136ZM89.0198 41.6136C88.372 42.6409 87.6221 44.9285 86.7694 48.4781C87.2395 49.4749 87.8423 50.2674 88.5786 50.853C89.2255 51.3811 89.8283 51.6455 90.3877 51.6455C91.0058 51.6455 91.3144 51.309 91.3144 50.6343C91.3144 50.047 90.9174 48.8299 90.1233 46.9813C89.3284 45.1336 88.9314 43.6673 88.9314 42.5816C88.9314 42.2298 88.9603 41.9077 89.0198 41.6136ZM117.497 40.8212C117.026 40.705 116.496 41.189 115.908 42.273C115.261 43.4469 114.863 44.8115 114.716 46.366C114.658 47.0406 114.643 47.539 114.673 47.8619C115.731 47.6272 116.585 46.8796 117.232 45.6176C117.761 44.5912 118.027 43.4919 118.027 42.3171C118.027 41.4094 117.85 40.9093 117.497 40.8212ZM37.1527 28.8978C36.8279 28.7216 36.4462 29.7632 36.005 32.0212C35.5637 34.2808 35.2687 36.7455 35.1225 39.4137C35.063 40.5876 35.0341 42.0539 35.0341 43.8134C36.7404 41.1156 37.5939 37.2295 37.5939 32.1542C37.5939 30.1294 37.446 29.0453 37.1527 28.8978ZM43.9489 28.8978C43.6241 28.7216 43.2424 29.7632 42.8012 32.0212C42.36 34.2808 42.0649 36.7455 41.9187 39.4137C41.8592 40.5876 41.8303 42.0539 41.8303 43.8134C43.5366 41.1156 44.3902 37.2295 44.3902 32.1542C44.3902 30.1294 44.2422 29.0453 43.9489 28.8978ZM30.1354 37.918C30.6939 37.8298 31.0178 38.1375 31.1062 38.8418C31.1649 39.2529 31.0765 39.6046 30.8418 39.8979C30.6055 40.192 30.3266 40.3675 30.0027 40.4259C29.6788 40.4844 29.4144 40.4192 29.2087 40.2285C29.0021 40.0377 28.9281 39.7513 28.9876 39.3699C29.105 38.4901 29.4884 38.0061 30.1354 37.918ZM110.866 37.918C111.423 37.8298 111.747 38.1375 111.836 38.8418C111.894 39.2529 111.806 39.6046 111.571 39.8979C111.336 40.192 111.056 40.3675 110.733 40.4259C110.409 40.4844 110.144 40.4192 109.938 40.2285C109.732 40.0377 109.658 39.7513 109.718 39.3699C109.834 38.4901 110.218 38.0061 110.866 37.918Z" fill="white"/>
</svg>
