<svg width="128" height="78" viewBox="0 0 128 78" fill="none" xmlns="http://www.w3.org/2000/svg">
<path fill-rule="evenodd" clip-rule="evenodd" d="M6.86119 29C9.98996 29 12.5143 30.6956 12.5143 33.4142C12.5143 35.2717 11.4714 36.6442 11.0605 36.6442C10.6765 36.6442 8.7005 35.46 8.7005 35.1105C8.7005 34.9757 9.0845 34.3565 9.0845 33.7373C9.0845 32.6067 8.28811 31.7991 6.91647 31.7991C5.57173 31.7991 4.61098 32.6873 4.61098 34.0062C4.61098 35.4065 6.14773 36.2412 8.1514 37.237C8.30841 37.3162 8.46593 37.3957 8.62342 37.4758L9.09527 37.7176C11.6056 39.0179 13.9697 40.5119 13.9697 43.2398C13.9697 46.7123 10.8954 49 6.80665 49C2.79931 49 0 47.0347 0 43.5087C0 41.2474 1.42767 39.4975 1.75639 39.4975C2.19567 39.4975 4.08952 40.7901 4.08952 41.1397C4.08952 41.3551 3.43059 42.0549 3.43059 43.2398C3.43059 44.9896 4.9128 46.1737 6.91647 46.1737C9.00157 46.1737 10.3194 44.9625 10.3194 43.3204C10.3194 41.7588 8.94704 40.8707 5.92808 39.4441C3.29388 38.2057 1.04292 36.8867 1.04292 33.9256C1.04292 31.1536 3.48588 29 6.86119 29ZM93.3374 29C96.6313 29 98.7171 31.2071 98.7171 34.0605C98.7171 36.8867 96.5491 39.0667 93.7498 39.8207C93.5847 39.8749 93.3651 39.902 93.2283 39.902C92.8712 39.902 92.0203 37.7748 92.0203 37.4253C92.0203 37.3176 92.1025 37.237 92.2399 37.1828C94.1607 36.4287 95.3411 35.4336 95.3411 33.9256C95.3411 32.7686 94.6276 31.934 93.2829 31.934C90.4836 31.934 88.453 35.5677 88.453 39.4712C88.453 43.4545 91.0872 46.066 94.6276 46.066C97.1873 46.066 99.1552 44.7886 100.213 43.0711C100.185 42.7939 100.171 42.509 100.171 42.2168C100.171 38.4482 102.642 35.6212 106.045 35.6212C107.773 35.6212 108.981 36.2411 109.832 36.9944L109.915 36.9672V36.6177C109.915 36.214 110.189 35.9714 110.546 35.9714H112.659C113.07 35.9714 113.318 36.214 113.318 36.6712C113.318 37.1827 113.016 41.0861 113.016 43.2126C113.016 44.4238 113.51 45.4197 114.47 45.4197C115.812 45.4197 116.952 43.7629 117.6 42.2742L117.599 36.6444C117.599 36.2406 117.818 35.9717 118.23 35.9717H120.426C120.865 35.9717 121.112 36.2143 121.112 36.6715C121.112 38.1788 120.974 42.0551 120.974 43.078C120.974 44.4505 121.441 45.4199 122.566 45.4199C124.076 45.4199 125.366 43.4818 125.86 42.1093C125.915 41.9745 125.969 41.8939 126.134 41.8939C126.381 41.8939 128 42.6201 128 42.9168C128 42.9974 127.973 43.1052 127.945 43.1858C127.177 45.5005 125.146 48.3539 121.798 48.3539C119.978 48.3539 118.684 47.5865 118.048 46.1722C117.022 47.3649 115.543 48.3536 113.565 48.3536C111.589 48.3536 110.161 47.4384 110.161 45.8776V45.608L110.052 45.5816C109.365 47.0618 107.829 48.3536 105.441 48.3536C103.559 48.3536 102.061 47.4793 101.15 46.0139C99.6515 47.7048 97.269 49 94.1607 49C88.5897 49 84.8028 45.2585 84.8028 39.5247C84.8028 33.7102 88.2602 29 93.3374 29ZM54.6144 29.5649C55.0805 29.5649 55.3002 29.8338 55.3002 30.2918C55.3002 32.0687 54.9438 40.4398 54.9438 43.2397C54.9438 44.4773 55.3824 45.4197 56.4806 45.4197C57.8926 45.4197 59.0813 43.5857 59.6645 42.2717L59.6636 36.6444C59.6636 36.2406 59.8832 35.9717 60.2949 35.9717H62.4905C62.9298 35.9717 63.1763 36.2143 63.1763 36.6715C63.1763 38.1788 63.0396 42.0551 63.0396 43.078C63.0396 44.4505 63.5058 45.4199 64.6309 45.4199C65.7994 45.4199 66.8359 44.2591 67.4741 43.0981C67.427 42.7699 67.4035 42.4304 67.4035 42.0822C67.4035 38.3671 70.1475 35.6215 74.237 35.6215C78.1614 35.6215 80.7135 38.3671 80.7135 41.8668C80.7135 45.0704 78.408 48.3539 73.8523 48.3539C71.5176 48.3539 69.6785 47.4108 68.5715 45.8873C67.4969 47.2651 65.9314 48.3539 63.8629 48.3539C62.0474 48.3539 60.755 47.5901 60.1166 46.182C59.0428 47.411 57.5322 48.3536 55.6565 48.3536C53.3787 48.3536 51.7874 47.3043 51.7874 45.6893V45.4739L51.6776 45.4468C50.9918 46.8735 49.4819 48.3536 47.1219 48.3536C45.2177 48.3536 43.7354 47.4898 42.8238 46.0689C41.7516 47.3667 40.2182 48.3541 38.2297 48.3541C36.0064 48.3541 34.6347 47.1963 34.6347 45.6084C34.6347 45.4736 34.6347 45.2582 34.6616 45.1775L34.5518 45.1504C33.8114 46.7391 32.274 48.3541 29.8041 48.3541C28.0343 48.3541 26.8215 47.54 26.2162 46.1566C25.1331 47.3873 23.5472 48.3539 21.3519 48.3539C18.3599 48.3539 16.3293 46.4158 16.3293 43.5089V38.6903H15.6159C15.2042 38.6903 15.0122 38.5554 15.0122 38.1517V36.6444C15.0122 36.3484 15.1489 36.1329 15.506 36.1329H16.3293V33.0641C16.3293 32.6069 16.5766 32.3379 16.9882 32.3379H19.0741C19.5126 32.3379 19.7323 32.6069 19.7323 33.0641V36.1871C20.6108 36.16 21.653 36.1329 22.3119 36.1329C22.5592 36.1329 22.7512 36.2678 22.7512 36.5638V38.2059C22.7512 38.5825 22.5869 38.6903 22.285 38.6903C21.653 38.6903 20.6385 38.6631 19.7323 38.6631V42.1628C19.7323 44.2087 20.2814 45.4199 22.0654 45.4199C23.9983 45.4199 25.2417 43.5146 25.7701 42.2203L25.7699 36.6709C25.7699 36.1866 26.0172 35.9711 26.4557 35.9711H28.5968C29.063 35.9711 29.2826 36.2408 29.2826 36.6445C29.2826 38.3138 29.1459 41.0858 29.1459 42.8899C29.1459 44.5855 29.5568 45.4201 30.7925 45.4201C32.7132 45.4201 34.3598 41.6515 34.3598 37.5861V36.6709C34.3598 36.2408 34.5518 35.9711 35.0187 35.9711H37.1868C37.6529 35.9711 37.8726 36.2137 37.8726 36.6709C37.8726 37.1476 37.7549 38.8718 37.6737 40.6249L37.6495 41.1781C37.6193 41.9131 37.5984 42.6305 37.5984 43.2394C37.5984 44.4235 38.0922 45.4201 39.1082 45.4201C40.2413 45.4201 41.2197 44.2363 41.846 43.1225C41.8136 42.8205 41.7974 42.509 41.7974 42.1896C41.7974 38.6636 44.0753 35.6212 47.7532 35.6212C49.4543 35.6212 50.9918 36.4287 51.8419 37.075L51.9518 37.0486V30.2647C51.9518 29.8074 52.1714 29.5649 52.583 29.5649H54.6144ZM74.1817 38.3136C72.1235 38.3136 70.9708 40.1712 70.9708 42.0551C70.9708 44.101 72.1781 45.6625 74.0443 45.6625C76.0479 45.6625 77.1185 43.8855 77.1185 41.7591C77.1185 39.848 76.1301 38.3136 74.1817 38.3136ZM48.8506 38.5559C46.847 38.5559 45.3379 40.1438 45.3379 42.378C45.3379 44.2355 46.3531 45.4197 47.8353 45.4197C50.2507 45.4197 51.5401 41.9471 51.5401 39.74C50.9641 39.2014 49.9757 38.5559 48.8506 38.5559ZM107.225 38.5559C105.221 38.5559 103.712 40.1438 103.712 42.4051C103.712 44.2084 104.728 45.4197 106.155 45.4197C108.734 45.4197 109.915 41.7859 109.915 39.74C109.338 39.2014 108.35 38.5559 107.225 38.5559ZM61.4752 30.2107C62.4905 30.2107 63.3414 30.7764 63.3414 31.9335C63.3414 33.0377 62.6003 33.8181 61.3654 33.8181C60.2949 33.8181 59.5545 33.0912 59.5545 31.9606C59.5545 30.9376 60.3494 30.2107 61.4752 30.2107ZM119.41 30.2107C120.426 30.2107 121.276 30.7764 121.276 31.9335C121.276 33.0377 120.536 33.8181 119.3 33.8181C118.23 33.8181 117.489 33.0912 117.489 31.9606C117.489 30.9376 118.285 30.2107 119.41 30.2107Z" fill="white"/>
</svg>
